# xmcd
#
# Track frame offsets:
#	182
#	13610
#	26087
#	37135
#	47495
#	59195
#	76705
#	88852
#	102592
#	114777
#	128805
#	140067
#	151560
#	164880
#	175007
#	188200
#
# Disc length: 2669
#
# Revision: 1
# Processed by: cddbd v1.5.1PL0 Copyright (c) Steve Scherf et al.
# Submitted via: EasyCDDAExtractor 4.5.0.2
# Normalized: r0:DSETVAR1,TDELIM( - )
#
DISCID=d60a6b10
DTITLE=Various Artist - 16 All-Time Blues Hits 10
DYEAR=1900
DGENRE=Blues
TTITLE0=Lightning Hopkins - Mojo hand
TTITLE1=Elmore James - Standing at the crossroads
TTITLE2=Howlin' Wolf - You'll be mine
TTITLE3=Eric Clapton - West Coast Idea
TTITLE4=Muddy Waters - Goin' home
TTITLE5=John Lee Hooker - You're leavin' me baby
TTITLE6=Sonny Boy Williamson - Trust my baby
TTITLE7=Little Walter - You're so fine
TTITLE8=Elmore James - The sky is crying
TTITLE9=B.B. King - Whole lotta love
TTITLE10=Sonny Boy Williamson - Your funeral - My trial
TTITLE11=Johnny "Guitar" Watson - The eagle is back
TTITLE12=Muddy Waters - Rollin' and tumblin'
TTITLE13=Big Joe Williams - 44" Blues
TTITLE14=Leadbelly - Tell me baby
TTITLE15=Memphis Slim - Trouble, trouble
EXTD=
EXTT0=
EXTT1=
EXTT2=
EXTT3=
EXTT4=
EXTT5=
EXTT6=
EXTT7=
EXTT8=
EXTT9=
EXTT10=
EXTT11=
EXTT12=
EXTT13=
EXTT14=
EXTT15=
PLAYORDER=
